<svg width="150" height="56" viewBox="0 0 150 56" fill="none" xmlns="http://www.w3.org/2000/svg">
<path fill-rule="evenodd" clip-rule="evenodd" d="M13.1452 6.31006C12.0968 7.41428 11.5323 8.91288 11.5323 10.5692C11.6129 14.1185 12.0161 17.7467 12.0968 21.296C12.1774 24.6087 11.129 27.7636 9.91936 30.8396C9.51613 31.7072 9.03226 32.496 8.62903 33.3636C7.66129 35.3354 7.17742 36.203 7.17742 38.4903H2.09677V32.0227H3.30645C3.70968 33.5213 4.91935 34.7044 6.37097 35.0988L7.01613 35.2565L7.82258 33.2058L7.17742 33.127C5.96774 32.8903 5.24194 31.7861 5.48387 30.603C5.72581 29.5777 6.6129 28.8678 7.66129 28.8678L8.14516 28.9467L7.09677 20.1917C6.77419 16.2481 4.67742 12.8565 1.6129 10.6481C1.12903 10.2537 0.564516 9.93823 0 9.62273V40.7777H7.33871C7.90323 43.696 9.51613 46.2199 11.8548 47.9551C12.4194 48.3495 12.9032 48.8227 13.2258 49.3748C13.5484 48.8227 14.0323 48.3495 14.5968 47.9551C16.9355 46.2199 18.5484 43.696 19.1129 40.7777H26.2903V9.54386C25.7258 9.85935 25.1613 10.1748 24.6774 10.5692C21.6129 12.7777 19.5968 16.2481 19.1935 20.1129L18.1452 28.8678L18.629 28.7889C19.6774 28.7889 20.5645 29.4988 20.8065 30.5241C21.0484 31.7072 20.2419 32.8115 19.1129 33.0481L18.2258 33.2058L19.1935 35.1777L19.8387 35.0199C21.371 34.6256 22.5 33.4425 22.9032 31.9439H24.1129V38.4115H19.1935C19.1935 37.3072 19.0323 36.2819 18.7903 35.3354L17.7419 33.2847C17.2581 32.4171 16.8548 31.6284 16.4516 30.7608C15.2419 27.6847 14.1935 24.5298 14.2742 21.2171C14.2742 17.6678 14.7581 14.0396 14.8387 10.4903C14.7581 8.91288 14.1129 7.49316 13.1452 6.31006ZM2.09677 14.0396C3.54839 15.696 4.43548 17.7467 4.75806 19.9551L5.64516 27.2115C4.51613 27.7636 3.62903 28.7889 3.30645 29.972H2.09677V14.0396ZM24.1129 14.0396V29.972H22.9032C22.5806 28.7889 21.6935 27.7636 20.5645 27.2115L21.4516 19.9551C21.6935 17.6678 22.6613 15.696 24.1129 14.0396ZM13.1452 28.5523C13.7097 30.2875 14.4355 31.9439 15.3226 33.4425L16.6129 35.8875C16.8548 36.7551 17.0161 37.6227 17.0161 38.5692H14.6774V40.6988H16.7742C16.371 42.434 15.4839 44.0115 14.2742 45.1946V40.6988V38.5692V38.4903V38.3326C14.3548 37.2284 15.1613 36.3608 16.129 36.0453L15.1613 34.0734C14.3548 34.3889 13.629 34.8622 13.1452 35.572C12.6613 34.941 12.0161 34.4678 11.2097 34.1523L10.2419 36.1241C11.2097 36.5185 11.8548 37.3072 12.0161 38.4115V38.6481V40.7777V41.2509V45.3523C10.8065 44.0903 9.91936 42.5917 9.51613 40.8565H11.6129V38.727H9.27419C9.27419 37.8594 9.43548 36.9129 9.67742 36.0453C10.2419 34.8622 10.9677 33.6791 11.6129 32.496C12.1774 31.1551 12.6613 29.8932 13.1452 28.5523Z" fill="black"/>
<path d="M39.2743 3.86523H36.7743V51.8202H39.2743V3.86523Z" fill="#0095DA"/>
<path d="M39.2743 28.7891H36.7743V51.82H39.2743V28.7891Z" fill="#FFCB05"/>
<path d="M102.703 49.1524L105.806 43.7222H107.893V52.0562H105.806V46.6183L102.703 52.0562H100.616V43.7222H102.703V49.1524Z" fill="black"/>
<path d="M97.2532 47.142V48.7365H92.8822V47.142H97.2532ZM93.5355 43.7222V52.0562H91.4484V43.7222H93.5355ZM98.7097 43.7222V52.0562H96.6153V43.7222H98.7097Z" fill="black"/>
<path d="M89.3621 43.7223V52.0564H87.275V43.7223H89.3621ZM85.4242 41.6118C85.4242 41.35 85.521 41.1317 85.7153 40.9571C85.9097 40.7774 86.1565 40.6875 86.4556 40.6875C86.7605 40.6875 87.0073 40.7774 87.196 40.9571C87.3903 41.1317 87.4871 41.35 87.4871 41.6118C87.4871 41.8685 87.3903 42.0868 87.196 42.2665C87.0073 42.4411 86.7605 42.5284 86.4556 42.5284C86.1565 42.5284 85.9097 42.4411 85.7153 42.2665C85.521 42.0868 85.4242 41.8685 85.4242 41.6118ZM89.1806 41.6195C89.1806 41.3576 89.275 41.1394 89.4645 40.9648C89.6581 40.7851 89.9081 40.6952 90.2121 40.6952C90.5113 40.6952 90.7581 40.7851 90.9524 40.9648C91.1468 41.1394 91.2444 41.3576 91.2444 41.6195C91.2444 41.8763 91.1468 42.0945 90.9524 42.2743C90.7581 42.4488 90.5113 42.5361 90.2121 42.5361C89.9081 42.5361 89.6581 42.4488 89.4645 42.2743C89.275 42.0945 89.1806 41.8763 89.1806 41.6195Z" fill="black"/>
<path d="M83.1484 50.2849V46.4414C83.1484 46.159 83.0984 45.915 82.9984 45.7096C82.8984 45.5042 82.7459 45.3451 82.5419 45.2321C82.3371 45.1191 82.0766 45.0626 81.7621 45.0626C81.4839 45.0626 81.2395 45.1088 81.0298 45.2013C80.825 45.2937 80.6669 45.4246 80.5569 45.5941C80.4467 45.7584 80.3915 45.9484 80.3915 46.1641H78.3046C78.3046 45.82 78.3885 45.494 78.5566 45.1859C78.7246 44.8726 78.9634 44.5954 79.2732 44.354C79.5883 44.1075 79.9636 43.9149 80.3994 43.7763C80.8403 43.6377 81.3338 43.5684 81.8798 43.5684C82.5258 43.5684 83.1008 43.6762 83.6048 43.8918C84.1137 44.1024 84.5129 44.4207 84.8016 44.847C85.0959 45.2731 85.2427 45.8098 85.2427 46.4568V50.0924C85.2427 50.5083 85.2693 50.8652 85.3218 51.163C85.379 51.4557 85.4637 51.7098 85.5734 51.9255V52.0565H83.4548C83.3556 51.8459 83.279 51.5789 83.2266 51.2554C83.1742 50.9268 83.1484 50.6033 83.1484 50.2849ZM83.4395 46.9806L83.4548 48.1899H82.1403C81.8145 48.1899 81.5282 48.2232 81.2814 48.2899C81.0347 48.3515 80.8322 48.444 80.675 48.5673C80.5176 48.6853 80.3994 48.8291 80.3207 48.9985C80.2419 49.1629 80.2026 49.3503 80.2026 49.5608C80.2026 49.7663 80.2498 49.9511 80.3443 50.1155C80.4441 50.2798 80.5858 50.4107 80.7693 50.5083C80.9588 50.6007 81.179 50.6469 81.4314 50.6469C81.7984 50.6469 82.1185 50.575 82.3919 50.4313C82.6653 50.2824 82.8774 50.1026 83.0298 49.8921C83.1822 49.6815 83.2637 49.4812 83.2742 49.2912L83.8726 50.1693C83.7992 50.3799 83.6887 50.6033 83.5419 50.8394C83.3951 51.0757 83.2056 51.2965 82.975 51.5019C82.7435 51.7073 82.4653 51.8767 82.1403 52.0102C81.8145 52.1438 81.4363 52.2105 81.0056 52.2105C80.4546 52.2105 79.961 52.1027 79.5252 51.887C79.0895 51.6713 78.7455 51.3761 78.4935 51.0012C78.2415 50.6263 78.1155 50.2002 78.1155 49.7226C78.1155 49.281 78.1995 48.8907 78.3676 48.5518C78.5355 48.213 78.785 47.9279 79.1157 47.6969C79.4465 47.4607 79.856 47.2835 80.3443 47.1654C80.8379 47.0422 81.4024 46.9806 82.0379 46.9806H83.4395Z" fill="black"/>
<path d="M71.4607 45.3245V55.2607H69.3737V43.7224H71.3032L71.4607 45.3245ZM76.9342 47.8047V47.9665C76.9342 48.5724 76.8607 49.1347 76.7137 49.6533C76.5719 50.1668 76.3619 50.6161 76.0837 51.0012C75.8054 51.3812 75.4589 51.6791 75.0441 51.8947C74.6346 52.1052 74.162 52.2105 73.6265 52.2105C73.1015 52.2105 72.6447 52.1129 72.2562 51.9178C71.8677 51.7175 71.5395 51.4351 71.2718 51.0705C71.004 50.706 70.7887 50.2824 70.626 49.7997C70.4685 49.3118 70.3503 48.7804 70.2715 48.2052V47.6892C70.3503 47.0781 70.4685 46.5235 70.626 46.0254C70.7887 45.5222 71.004 45.0883 71.2718 44.7237C71.5395 44.354 71.865 44.069 72.2483 43.8687C72.6369 43.6684 73.091 43.5684 73.6107 43.5684C74.1515 43.5684 74.6267 43.6684 75.0362 43.8687C75.451 44.069 75.8002 44.3565 76.0837 44.7314C76.3672 45.1063 76.5799 45.553 76.7216 46.0716C76.8633 46.5903 76.9342 47.168 76.9342 47.8047ZM74.8472 47.9665V47.8047C74.8472 47.435 74.8131 47.0935 74.7448 46.7802C74.6766 46.4619 74.5716 46.1846 74.4298 45.9484C74.2881 45.7071 74.1043 45.5196 73.8786 45.3862C73.6527 45.2526 73.3798 45.1859 73.0595 45.1859C72.7392 45.1859 72.4636 45.2372 72.2326 45.3399C72.0015 45.4426 71.8125 45.5889 71.6655 45.7789C71.5185 45.9689 71.403 46.1949 71.319 46.4568C71.2403 46.7135 71.1877 46.9985 71.1615 47.3118V48.5904C71.2087 48.9703 71.3007 49.3118 71.4371 49.6148C71.5736 49.9177 71.7732 50.1591 72.0357 50.3388C72.3034 50.5185 72.6499 50.6084 73.0752 50.6084C73.3955 50.6084 73.6686 50.5391 73.8943 50.4004C74.1201 50.2618 74.3038 50.0718 74.4456 49.8304C74.5873 49.5839 74.6897 49.3016 74.7527 48.9832C74.8157 48.6648 74.8472 48.3259 74.8472 47.9665Z" fill="black"/>
<path d="M62.6087 43.7222V52.0562H60.5295V43.7222H62.6087ZM68.1609 43.7222L64.4043 48.8366H62.1913L61.9314 46.9726H63.4671L65.5384 43.7222H68.1609ZM65.6644 52.0562L63.3333 48.4823L65.0658 47.4194L68.4287 52.0562H65.6644Z" fill="black"/>
<path d="M54.6859 48.074L57.5526 40.8413H59.9074L55.9539 49.9534C55.8227 50.2461 55.673 50.5285 55.505 50.8006C55.3369 51.0728 55.1349 51.3167 54.8986 51.5323C54.6676 51.7429 54.3867 51.9098 54.0559 52.033C53.7304 52.1563 53.3366 52.2179 52.8746 52.2179C52.7538 52.2179 52.6094 52.2128 52.4414 52.2024C52.2734 52.1973 52.1448 52.1897 52.0555 52.1793V50.5157C52.1186 50.531 52.2209 50.5413 52.3627 50.5464C52.5097 50.5516 52.6147 50.5542 52.6777 50.5542C52.9822 50.5542 53.2237 50.5079 53.4023 50.4155C53.586 50.3179 53.7304 50.187 53.8354 50.0227C53.9457 49.8532 54.0428 49.6607 54.1268 49.445L54.6859 48.074ZM52.654 40.8413L55.4026 46.7183L56.0484 49.006L54.4024 49.0522L50.3072 40.8413H52.654Z" fill="black"/>
<path d="M130.141 31.0118L133.244 25.5815H135.331V33.9156H133.244V28.4777L130.141 33.9156H128.054V25.5815H130.141V31.0118Z" fill="black"/>
<path d="M121.265 25.5815V33.9156H119.186V25.5815H121.265ZM126.818 25.5815L123.061 30.696H120.848L120.588 28.832H122.124L124.195 25.5815H126.818ZM124.321 33.9156L121.99 30.3417L123.723 29.2787L127.085 33.9156H124.321Z" fill="black"/>
<path d="M111.965 31.0118L115.068 25.5815H117.154V33.9156H115.068V28.4777L111.965 33.9156H109.877V25.5815H111.965V31.0118Z" fill="black"/>
<path d="M105.869 25.5815V33.9156H103.781V25.5815H105.869ZM108.641 25.5815V27.1682H101.057V25.5815H108.641Z" fill="black"/>
<path d="M96.9774 34.0694C96.3314 34.0694 95.7516 33.9667 95.2371 33.7613C94.7226 33.5559 94.2839 33.2709 93.9218 32.9063C93.5645 32.5366 93.2887 32.1078 93.0952 31.62C92.9056 31.127 92.8113 30.5982 92.8113 30.0333V29.7252C92.8113 29.0833 92.9056 28.5005 93.0952 27.9767C93.2839 27.4478 93.5516 26.9934 93.8984 26.6134C94.2443 26.2334 94.6597 25.9407 95.1427 25.7353C95.6258 25.5299 96.1581 25.4272 96.7411 25.4272C97.3452 25.4272 97.8774 25.5273 98.3395 25.7276C98.8016 25.9227 99.1879 26.2 99.4976 26.5595C99.8072 26.919 100.041 27.3503 100.198 27.8535C100.356 28.3516 100.435 28.9036 100.435 29.5096V30.3645H93.7564V28.9627H98.3871V28.8086C98.3766 28.4851 98.3137 28.1899 98.1984 27.9228C98.0822 27.6507 97.904 27.435 97.6629 27.2758C97.421 27.1115 97.1089 27.0293 96.725 27.0293C96.4153 27.0293 96.1451 27.0961 95.9145 27.2296C95.6887 27.358 95.4992 27.5429 95.3468 27.7842C95.2 28.0204 95.0895 28.3028 95.0161 28.6315C94.9427 28.9601 94.9064 29.3247 94.9064 29.7252V30.0333C94.9064 30.3825 94.9532 30.706 95.0476 31.0038C95.1476 31.3016 95.2919 31.561 95.4806 31.7817C95.675 31.9975 95.9064 32.1669 96.1742 32.2902C96.4468 32.4082 96.7572 32.4673 97.1032 32.4673C97.5395 32.4673 97.9331 32.3851 98.2847 32.2208C98.6419 32.0513 98.9516 31.8023 99.2137 31.4737L100.261 32.5366C100.083 32.7934 99.8411 33.0399 99.5371 33.2761C99.2379 33.5122 98.875 33.7048 98.45 33.8537C98.025 33.9975 97.5339 34.0694 96.9774 34.0694Z" fill="black"/>
<path d="M92.2597 25.5815V27.1913H88.629V33.9156H86.55V25.5815H92.2597Z" fill="black"/>
<path d="M79.5411 27.1834V37.1196H77.454V25.5813H79.3835L79.5411 27.1834ZM85.0145 29.6636V29.8254C85.0145 30.4313 84.9411 30.9936 84.7944 31.5122C84.6524 32.0257 84.4419 32.475 84.1637 32.8601C83.8855 33.2401 83.5395 33.5379 83.1242 33.7536C82.7145 33.9641 82.2419 34.0694 81.7065 34.0694C81.1815 34.0694 80.725 33.9718 80.3365 33.7767C79.9479 33.5764 79.6198 33.294 79.352 32.9294C79.0843 32.5649 78.869 32.1413 78.7062 31.6585C78.5487 31.1707 78.4306 30.6393 78.3518 30.0641V29.5481C78.4306 28.937 78.5487 28.3824 78.7062 27.8843C78.869 27.3811 79.0843 26.9472 79.352 26.5826C79.6198 26.2129 79.9453 25.9279 80.3286 25.7276C80.7169 25.5273 81.171 25.4272 81.6911 25.4272C82.2315 25.4272 82.7073 25.5273 83.1161 25.7276C83.5315 25.9279 83.8807 26.2154 84.1637 26.5903C84.4476 26.9652 84.6605 27.4119 84.8016 27.9305C84.9436 28.4492 85.0145 29.0269 85.0145 29.6636ZM82.9274 29.8254V29.6636C82.9274 29.2939 82.8936 28.9524 82.825 28.6391C82.7565 28.3208 82.6516 28.0435 82.5097 27.8073C82.3686 27.566 82.1847 27.3785 81.9589 27.245C81.7331 27.1115 81.4597 27.0448 81.1395 27.0448C80.8194 27.0448 80.5438 27.0961 80.3128 27.1988C80.0818 27.3015 79.8928 27.4478 79.7458 27.6378C79.5988 27.8278 79.4832 28.0538 79.3993 28.3157C79.3205 28.5724 79.268 28.8574 79.2418 29.1707V30.4493C79.289 30.8292 79.3809 31.1707 79.5174 31.4737C79.6539 31.7766 79.8534 32.018 80.116 32.1977C80.3837 32.3774 80.7299 32.4673 81.1557 32.4673C81.4758 32.4673 81.7484 32.398 81.9742 32.2593C82.2 32.1207 82.3839 31.9307 82.5258 31.6893C82.6678 31.4428 82.7702 31.1605 82.8331 30.8421C82.896 30.5237 82.9274 30.1848 82.9274 29.8254Z" fill="black"/>
<path d="M72.6106 34.0694C71.9648 34.0694 71.3846 33.9667 70.8701 33.7613C70.3556 33.5559 69.9172 33.2709 69.5549 32.9063C69.1978 32.5366 68.9222 32.1078 68.728 31.62C68.539 31.127 68.4445 30.5982 68.4445 30.0333V29.7252C68.4445 29.0833 68.539 28.5005 68.728 27.9767C68.917 27.4478 69.1848 26.9934 69.5313 26.6134C69.8778 26.2334 70.2926 25.9407 70.7756 25.7353C71.2587 25.5299 71.7916 25.4272 72.3743 25.4272C72.9781 25.4272 73.511 25.5273 73.9731 25.7276C74.4351 25.9227 74.821 26.2 75.1307 26.5595C75.4405 26.919 75.6741 27.3503 75.8316 27.8535C75.9892 28.3516 76.0679 28.9036 76.0679 29.5096V30.3645H69.3895V28.9627H74.0203V28.8086C74.0098 28.4851 73.9468 28.1899 73.8313 27.9228C73.7158 27.6507 73.5373 27.435 73.2958 27.2758C73.0542 27.1115 72.7419 27.0293 72.3586 27.0293C72.0488 27.0293 71.7784 27.0961 71.5474 27.2296C71.3216 27.358 71.1326 27.5429 70.9803 27.7842C70.8333 28.0204 70.7231 28.3028 70.6496 28.6315C70.5761 28.9601 70.5394 29.3247 70.5394 29.7252V30.0333C70.5394 30.3825 70.5866 30.706 70.6811 31.0038C70.7808 31.3016 70.9253 31.561 71.1142 31.7817C71.3085 31.9975 71.5395 32.1669 71.8073 32.2902C72.0803 32.4082 72.3901 32.4673 72.7366 32.4673C73.1724 32.4673 73.5662 32.3851 73.9179 32.2208C74.2749 32.0513 74.5847 31.8023 74.8472 31.4737L75.8947 32.5366C75.7161 32.7934 75.4746 33.0399 75.1701 33.2761C74.8708 33.5122 74.5086 33.7048 74.0833 33.8537C73.658 33.9975 73.1671 34.0694 72.6106 34.0694Z" fill="black"/>
<path d="M65.436 29.0014V30.5958H61.0651V29.0014H65.436ZM61.7187 25.5815V33.9156H59.6318V25.5815H61.7187ZM66.893 25.5815V33.9156H64.7981V25.5815H66.893Z" fill="black"/>
<path d="M54.7647 34.0694C54.1189 34.0694 53.5387 33.9667 53.0242 33.7613C52.5097 33.5559 52.0713 33.2709 51.709 32.9063C51.352 32.5366 51.0763 32.1078 50.8821 31.62C50.6931 31.127 50.5986 30.5982 50.5986 30.0333V29.7252C50.5986 29.0833 50.6931 28.5005 50.8821 27.9767C51.0711 27.4478 51.3389 26.9934 51.6853 26.6134C52.0319 26.2334 52.4467 25.9407 52.9297 25.7353C53.4128 25.5299 53.9457 25.4272 54.5284 25.4272C55.1322 25.4272 55.6651 25.5273 56.1272 25.7276C56.5892 25.9227 56.9751 26.2 57.2849 26.5595C57.5946 26.919 57.8282 27.3503 57.9857 27.8535C58.1433 28.3516 58.222 28.9036 58.222 29.5096V30.3645H51.5437V28.9627H56.1744V28.8086C56.1639 28.4851 56.1009 28.1899 55.9854 27.9228C55.8699 27.6507 55.6914 27.435 55.4499 27.2758C55.2083 27.1115 54.896 27.0293 54.5127 27.0293C54.2029 27.0293 53.9325 27.0961 53.7015 27.2296C53.4757 27.358 53.2867 27.5429 53.1345 27.7842C52.9874 28.0204 52.8772 28.3028 52.8037 28.6315C52.7302 28.9601 52.6934 29.3247 52.6934 29.7252V30.0333C52.6934 30.3825 52.7407 30.706 52.8352 31.0038C52.9349 31.3016 53.0794 31.561 53.2683 31.7817C53.4626 31.9975 53.6937 32.1669 53.9614 32.2902C54.2345 32.4082 54.5442 32.4673 54.8907 32.4673C55.3265 32.4673 55.7203 32.3851 56.072 32.2208C56.4291 32.0513 56.7388 31.8023 57.0013 31.4737L58.0488 32.5366C57.8703 32.7934 57.6287 33.0399 57.3242 33.2761C57.0249 33.5122 56.6627 33.7048 56.2374 33.8537C55.8121 33.9975 55.3212 34.0694 54.7647 34.0694Z" fill="black"/>
<path d="M141.623 10.9034V10.7416C141.623 10.1306 141.713 9.56827 141.891 9.0548C142.07 8.53613 142.33 8.08687 142.671 7.70684C143.012 7.32685 143.43 7.03159 143.923 6.82107C144.417 6.60539 144.978 6.49756 145.609 6.49756C146.249 6.49756 146.816 6.60539 147.31 6.82107C147.809 7.03159 148.228 7.32685 148.57 7.70684C148.911 8.08687 149.171 8.53613 149.349 9.0548C149.528 9.56827 149.617 10.1306 149.617 10.7416V10.9034C149.617 11.5093 149.528 12.0715 149.349 12.5902C149.171 13.1037 148.911 13.553 148.57 13.9382C148.228 14.3181 147.811 14.6134 147.318 14.8239C146.824 15.0344 146.26 15.1397 145.624 15.1397C144.994 15.1397 144.43 15.0344 143.931 14.8239C143.432 14.6134 143.012 14.3181 142.671 13.9382C142.33 13.553 142.07 13.1037 141.891 12.5902C141.713 12.0715 141.623 11.5093 141.623 10.9034ZM143.702 10.7416V10.9034C143.702 11.268 143.74 11.6094 143.813 11.9278C143.886 12.2462 143.999 12.526 144.152 12.7674C144.304 13.0087 144.501 13.1987 144.742 13.3374C144.989 13.4708 145.283 13.5376 145.624 13.5376C145.961 13.5376 146.249 13.4708 146.49 13.3374C146.732 13.1987 146.929 13.0087 147.081 12.7674C147.239 12.526 147.354 12.2462 147.428 11.9278C147.502 11.6094 147.538 11.268 147.538 10.9034V10.7416C147.538 10.3822 147.502 10.0458 147.428 9.73256C147.354 9.41423 147.239 9.13439 147.081 8.89303C146.929 8.64655 146.73 8.45403 146.483 8.31537C146.241 8.17158 145.95 8.09965 145.609 8.09965C145.273 8.09965 144.984 8.17158 144.742 8.31537C144.501 8.45403 144.304 8.64655 144.152 8.89303C143.999 9.13439 143.886 9.41423 143.813 9.73256C143.74 10.0458 143.702 10.3822 143.702 10.7416Z" fill="black"/>
<path d="M137.048 11.4582H134.347L134.331 10.0795H136.552C136.882 10.0795 137.153 10.0461 137.363 9.97929C137.573 9.91256 137.728 9.81247 137.827 9.67894C137.932 9.54541 137.985 9.38364 137.985 9.19363C137.985 9.02934 137.953 8.88816 137.89 8.77C137.827 8.6468 137.733 8.54664 137.607 8.46966C137.486 8.3926 137.331 8.33612 137.143 8.30016C136.959 8.25914 136.744 8.23856 136.497 8.23856H135.087V14.9859H133V6.65186H136.497C137.048 6.65186 137.544 6.70064 137.985 6.7982C138.426 6.89064 138.802 7.03184 139.111 7.22184C139.421 7.41184 139.657 7.65317 139.82 7.94586C139.988 8.23343 140.072 8.57235 140.072 8.96261C140.072 9.21935 140.015 9.4607 139.899 9.68659C139.783 9.91256 139.613 10.1128 139.387 10.2874C139.161 10.462 138.883 10.6058 138.552 10.7187C138.222 10.8266 137.844 10.8934 137.418 10.9191L137.048 11.4582ZM137.048 14.9859H133.787L134.56 13.3992H137.048C137.352 13.3992 137.605 13.3633 137.804 13.2914C138.003 13.2144 138.151 13.1039 138.245 12.9601C138.345 12.8164 138.394 12.6418 138.394 12.4364C138.394 12.2362 138.348 12.0641 138.253 11.9204C138.164 11.7714 138.019 11.6584 137.819 11.5814C137.626 11.4993 137.369 11.4582 137.048 11.4582H134.898L134.914 10.0795H137.41L137.961 10.6264C138.528 10.6623 138.998 10.7753 139.371 10.9652C139.744 11.1501 140.023 11.3863 140.206 11.6739C140.39 11.9563 140.481 12.2669 140.481 12.6058C140.481 13.0012 140.406 13.3479 140.253 13.6457C140.101 13.9435 139.878 14.1925 139.584 14.3928C139.29 14.5879 138.93 14.7368 138.505 14.8396C138.08 14.9372 137.594 14.9859 137.048 14.9859Z" fill="black"/>
<path d="M128.865 6.65186V14.9859H126.778V6.65186H128.865ZM131.637 6.65186V8.23856H124.053V6.65186H131.637Z" fill="black"/>
<path d="M119.816 13.5376C120.111 13.5376 120.373 13.4811 120.604 13.3681C120.835 13.2552 121.019 13.096 121.155 12.8906C121.297 12.6852 121.373 12.4464 121.384 12.1742H123.344C123.334 12.7391 123.171 13.2449 122.856 13.6917C122.541 14.1384 122.121 14.4927 121.596 14.7546C121.077 15.0114 120.494 15.1397 119.848 15.1397C119.192 15.1397 118.619 15.0319 118.131 14.8163C117.643 14.6005 117.236 14.3002 116.911 13.915C116.59 13.5299 116.348 13.0832 116.186 12.5748C116.028 12.0664 115.949 11.5221 115.949 10.9418V10.6954C115.949 10.1152 116.028 9.57087 116.186 9.06245C116.348 8.55412 116.59 8.10738 116.911 7.72226C117.236 7.33712 117.643 7.03674 118.131 6.82107C118.619 6.60539 119.189 6.49756 119.84 6.49756C120.527 6.49756 121.131 6.6285 121.652 6.89039C122.177 7.15227 122.586 7.52199 122.88 7.99956C123.179 8.47706 123.334 9.03934 123.344 9.68634H121.384C121.373 9.38852 121.305 9.12153 121.179 8.8853C121.052 8.64908 120.874 8.45915 120.644 8.31537C120.412 8.17158 120.131 8.09965 119.801 8.09965C119.449 8.09965 119.155 8.17158 118.919 8.31537C118.688 8.45915 118.506 8.65681 118.375 8.90841C118.249 9.15489 118.16 9.43221 118.107 9.74029C118.061 10.0432 118.036 10.3617 118.036 10.6954V10.9418C118.036 11.2808 118.061 11.6043 118.107 11.9124C118.16 12.2205 118.249 12.4978 118.375 12.7443C118.506 12.9856 118.688 13.1781 118.919 13.3219C119.155 13.4657 119.454 13.5376 119.816 13.5376Z" fill="black"/>
<path d="M109.326 8.25369V18.1899H107.24V6.65161H109.169L109.326 8.25369ZM114.8 10.7339V10.8957C114.8 11.5016 114.726 12.0639 114.579 12.5825C114.437 13.096 114.227 13.5453 113.949 13.9304C113.671 14.3104 113.324 14.6083 112.91 14.8239C112.5 15.0344 112.027 15.1397 111.492 15.1397C110.967 15.1397 110.51 15.0421 110.122 14.847C109.733 14.6468 109.405 14.3643 109.137 13.9998C108.869 13.6352 108.654 13.2116 108.491 12.7289C108.334 12.241 108.216 11.7096 108.137 11.1345V10.6184C108.216 10.0074 108.334 9.45272 108.491 8.95463C108.654 8.45142 108.869 8.01754 109.137 7.65293C109.405 7.28321 109.731 6.99822 110.114 6.79795C110.502 6.59769 110.956 6.49756 111.476 6.49756C112.017 6.49756 112.492 6.59769 112.902 6.79795C113.316 6.99822 113.665 7.28578 113.949 7.66063C114.232 8.03552 114.445 8.48226 114.587 9.00085C114.729 9.51952 114.8 10.0972 114.8 10.7339ZM112.713 10.8957V10.7339C112.713 10.3642 112.678 10.0227 112.61 9.70945C112.542 9.39112 112.437 9.1138 112.295 8.87765C112.153 8.6363 111.969 8.44882 111.744 8.31537C111.519 8.18183 111.245 8.11511 110.925 8.11511C110.605 8.11511 110.329 8.16645 110.098 8.26915C109.867 8.37184 109.678 8.51815 109.531 8.70815C109.384 8.89816 109.269 9.12413 109.185 9.38599C109.106 9.64272 109.053 9.92769 109.027 10.241V11.5196C109.074 11.8995 109.166 12.241 109.302 12.544C109.439 12.8469 109.639 13.0883 109.901 13.2681C110.169 13.4477 110.515 13.5376 110.94 13.5376C111.261 13.5376 111.534 13.4683 111.76 13.3297C111.985 13.191 112.169 13.001 112.311 12.7596C112.452 12.5132 112.555 12.2308 112.618 11.9124C112.681 11.594 112.713 11.2551 112.713 10.8957Z" fill="black"/>
<path d="M102.396 15.1397C101.75 15.1397 101.17 15.037 100.655 14.8316C100.14 14.6263 99.7024 14.3412 99.3403 13.9766C98.9831 13.607 98.7073 13.1781 98.5129 12.6903C98.3242 12.1973 98.2299 11.6685 98.2299 11.1036V10.7955C98.2299 10.1537 98.3242 9.57087 98.5129 9.04707C98.7024 8.51815 98.9702 8.06376 99.3161 7.68374C99.6629 7.30375 100.077 7.01105 100.561 6.80566C101.044 6.60026 101.577 6.49756 102.16 6.49756C102.763 6.49756 103.296 6.59769 103.758 6.79795C104.22 6.99309 104.606 7.27037 104.916 7.62982C105.226 7.9893 105.46 8.42058 105.617 8.92387C105.774 9.42196 105.853 9.97391 105.853 10.5799V11.4348H99.175V10.033H103.806V9.87895C103.795 9.55541 103.732 9.26019 103.616 8.99312C103.501 8.72101 103.323 8.50537 103.081 8.34613C102.84 8.18183 102.527 8.09965 102.144 8.09965C101.834 8.09965 101.564 8.16645 101.332 8.29991C101.106 8.42831 100.918 8.61319 100.765 8.85454C100.619 9.09069 100.508 9.37314 100.435 9.7018C100.361 10.0304 100.324 10.395 100.324 10.7955V11.1036C100.324 11.4528 100.372 11.7763 100.466 12.0741C100.566 12.372 100.711 12.6313 100.899 12.8521C101.094 13.0678 101.325 13.2372 101.593 13.3605C101.865 13.4786 102.175 13.5376 102.522 13.5376C102.957 13.5376 103.352 13.4555 103.703 13.2912C104.06 13.1217 104.37 12.8727 104.632 12.544L105.68 13.607C105.502 13.8637 105.26 14.1102 104.956 14.3464C104.656 14.5826 104.294 14.7752 103.869 14.9241C103.444 15.0679 102.952 15.1397 102.396 15.1397Z" fill="black"/>
<path d="M95.1427 6.65186V14.9859H93.0556V6.65186H95.1427ZM97.9145 6.65186V8.23856H90.3306V6.65186H97.9145Z" fill="black"/>
<path d="M86.0936 13.5376C86.3871 13.5376 86.65 13.4811 86.8807 13.3681C87.1121 13.2552 87.296 13.096 87.4323 12.8906C87.5742 12.6852 87.65 12.4464 87.6605 12.1742H89.6218C89.6113 12.7391 89.4484 13.2449 89.1331 13.6917C88.8186 14.1384 88.3984 14.4927 87.8734 14.7546C87.3532 15.0114 86.771 15.1397 86.125 15.1397C85.4686 15.1397 84.896 15.0319 84.4081 14.8163C83.9202 14.6005 83.5129 14.3002 83.1871 13.915C82.8669 13.5299 82.6258 13.0832 82.4629 12.5748C82.3057 12.0664 82.2266 11.5221 82.2266 10.9418V10.6954C82.2266 10.1152 82.3057 9.57087 82.4629 9.06245C82.6258 8.55412 82.8669 8.10738 83.1871 7.72226C83.5129 7.33712 83.9202 7.03674 84.4081 6.82107C84.896 6.60539 85.4661 6.49756 86.117 6.49756C86.8049 6.49756 87.4089 6.6285 87.9282 6.89039C88.4532 7.15227 88.8629 7.52199 89.1573 7.99956C89.4565 8.47706 89.6113 9.03934 89.6218 9.68634H87.6605C87.65 9.38852 87.5823 9.12153 87.4557 8.8853C87.3299 8.64908 87.1516 8.45915 86.9202 8.31537C86.6895 8.17158 86.4081 8.09965 86.0774 8.09965C85.7258 8.09965 85.4323 8.17158 85.196 8.31537C84.9645 8.45915 84.7839 8.65681 84.6524 8.90841C84.5258 9.15489 84.4371 9.43221 84.3847 9.74029C84.3371 10.0432 84.3137 10.3617 84.3137 10.6954V10.9418C84.3137 11.2808 84.3371 11.6043 84.3847 11.9124C84.4371 12.2205 84.5258 12.4978 84.6524 12.7443C84.7839 12.9856 84.9645 13.1781 85.196 13.3219C85.4323 13.4657 85.7315 13.5376 86.0936 13.5376Z" fill="black"/>
<path d="M80.6121 6.65203V14.9861H78.5251V6.65203H80.6121ZM78.3833 4.47223C78.3833 4.16927 78.4883 3.91766 78.6983 3.71739C78.9136 3.51712 79.2023 3.41699 79.5647 3.41699C79.9269 3.41699 80.2131 3.51712 80.4231 3.71739C80.6383 3.91766 80.746 4.16927 80.746 4.47223C80.746 4.77006 80.6383 5.0191 80.4231 5.21937C80.2131 5.41963 79.9269 5.51977 79.5647 5.51977C79.2023 5.51977 78.9136 5.41963 78.6983 5.21937C78.4883 5.0191 78.3833 4.77006 78.3833 4.47223Z" fill="black"/>
<path d="M75.0598 10.0717V11.6662H70.6889V10.0717H75.0598ZM71.3425 6.65186V14.9859H69.2556V6.65186H71.3425ZM76.5168 6.65186V14.9859H74.4219V6.65186H76.5168Z" fill="black"/>
<path d="M67.2552 6.65203V14.9861H65.1682V6.65203H67.2552ZM65.0264 4.47223C65.0264 4.16927 65.1314 3.91766 65.3414 3.71739C65.5568 3.51712 65.8455 3.41699 66.2078 3.41699C66.5701 3.41699 66.8562 3.51712 67.0662 3.71739C67.2814 3.91766 67.3891 4.16927 67.3891 4.47223C67.3891 4.77006 67.2814 5.0191 67.0662 5.21937C66.8562 5.41963 66.5701 5.51977 66.2078 5.51977C65.8455 5.51977 65.5568 5.41963 65.3414 5.21937C65.1314 5.0191 65.0264 4.77006 65.0264 4.47223Z" fill="black"/>
<path d="M52.0397 3.771H53.9141L57.0485 12.2129L60.1752 3.771H62.0574L57.7968 14.9858H56.2925L52.0397 3.771ZM51.0947 3.771H52.9297L53.2605 11.5274V14.9858H51.0947V3.771ZM61.1596 3.771H63.0024V14.9858H60.8367V11.5274L61.1596 3.771Z" fill="black"/>
</svg>
