<svg xmlns="http://www.w3.org/2000/svg" xmlns:xlink="http://www.w3.org/1999/xlink" version="1.1" id="Шар_1" x="0px" y="0px" style="enable-background:new 0 0 850.39 850.39;" xml:space="preserve" viewBox="259.93 361.96 330.53 125.24">
<style type="text/css">
	.st0{fill:#31B58C;}
	.st1{fill:#20262D;}
	.st2{fill:url(#SVGID_1_);}
</style>
<rect x="338.56" y="456.6" class="st0" width="33.71" height="3.61"/>
<g>
	<path class="st1" d="M347.68,362.41l-9.11,19.84h5.35l1.45-3.23h7.91l1.45,3.23h5.35l-9.11-19.84H347.68z M346.87,375.09l1.11-2.68   l1.34-3.87l1.36,3.87l1.12,2.68H346.87z"/>
	<polygon class="st1" points="361.83,382.25 366.82,382.25 366.82,367.01 376.55,367.01 376.55,362.44 361.83,362.44  "/>
	<polygon class="st1" points="383.46,374.53 392.07,374.53 392.07,370.49 383.46,370.49 383.46,366.76 393.68,366.76 393.68,362.44    378.72,362.44 378.72,382.25 394.04,382.25 394.04,377.93 383.46,377.93  "/>
	<polygon class="st1" points="409.23,370.88 401.43,370.88 401.43,362.44 396.55,362.44 396.55,382.25 401.43,382.25 401.43,375.34    409.23,375.34 409.23,382.25 414.11,382.25 414.11,362.44 409.23,362.44  "/>
	<rect x="440" y="362.44" class="st1" width="4.99" height="19.81"/>
	<path class="st1" d="M455.58,362.44c-2.49,0-4.37,0.62-5.63,1.87c-1.26,1.24-1.9,3.06-1.9,5.43c0,2.97,1.15,5.05,3.45,6.24   l-4.18,6.27h5.74l3.23-5.21h0.56h2.95v5.21h4.88v-19.81H455.58z M459.81,372.97h-2.9c-2.47,0-3.71-1.04-3.71-3.12   c0-1.06,0.27-1.85,0.82-2.38c0.55-0.53,1.44-0.79,2.69-0.79h3.09V372.97z"/>
	<polygon class="st1" points="434.62,362.44 429.74,362.44 429.74,377.77 422.33,377.77 422.33,362.44 417.45,362.44 417.45,382.25    433.42,382.25 433.42,384.72 437.82,384.72 437.82,377.77 434.62,377.77  "/>
</g>
<g>
	<polygon class="st1" points="338.56,427.24 344.61,427.24 344.61,442.48 349.6,442.48 349.6,427.24 355.59,427.24 355.59,422.67    338.56,422.67  "/>
	<path class="st1" d="M372.04,424.55c-1.44-1.25-3.53-1.88-6.28-1.88h-7.94v19.81h4.88v-4.88h2.82c5.8,0,8.69-2.53,8.69-7.58   C374.21,427.63,373.48,425.81,372.04,424.55z M365.37,433.45h-2.68v-6.55h2.82c1.28,0,2.21,0.27,2.77,0.81   c0.57,0.54,0.85,1.37,0.85,2.48C369.13,432.37,367.88,433.45,365.37,433.45z"/>
	<path class="st1" d="M381.9,422.64l-9.11,19.84h5.35l1.45-3.23h7.91l1.45,3.23h5.35l-9.11-19.84H381.9z M381.09,435.32l1.11-2.68   l1.34-3.87l1.36,3.87l1.12,2.68H381.09z"/>
	<polygon class="st1" points="408.73,431.11 400.93,431.11 400.93,422.67 396.05,422.67 396.05,442.48 400.93,442.48 400.93,435.57    408.73,435.57 408.73,442.48 413.61,442.48 413.61,422.67 408.73,422.67  "/>
	<path class="st1" d="M427.07,426.88c1.02,0,1.95,0.22,2.77,0.65c0.83,0.44,1.49,1.02,1.99,1.74l3.82-3.18   c-0.99-1.19-2.23-2.12-3.73-2.8c-1.5-0.68-3.18-1.02-5.02-1.02c-3.21,0-5.77,0.92-7.68,2.74c-1.91,1.83-2.86,4.33-2.86,7.51   c0,3.2,0.95,5.72,2.86,7.58c1.9,1.86,4.46,2.79,7.68,2.79c3.75,0,6.67-1.25,8.75-3.76l-3.82-3.2c-1.08,1.58-2.67,2.37-4.77,2.37   c-1.71,0-3.07-0.52-4.07-1.55c-1-1.03-1.5-2.44-1.5-4.22c0-1.77,0.5-3.15,1.5-4.15C424,427.38,425.36,426.88,427.07,426.88z"/>
	<path class="st1" d="M450.73,423.81h-0.22V422h-4.63v1.81h-0.2c-2.9,0-5.15,0.79-6.77,2.37c-1.62,1.58-2.42,3.66-2.42,6.24   c0,2.73,0.85,4.84,2.56,6.34c1.71,1.5,3.98,2.24,6.83,2.24v1.92h4.63v-1.92h0.03c2.88,0,5.16-0.79,6.86-2.38   c1.69-1.59,2.54-3.66,2.54-6.2c0-2.62-0.85-4.71-2.56-6.27C455.65,424.59,453.44,423.81,450.73,423.81z M445.88,437.02h-0.28   c-1.21,0-2.2-0.44-2.97-1.31c-0.77-0.87-1.16-1.97-1.16-3.29c0-1.41,0.38-2.54,1.16-3.37c0.77-0.84,1.78-1.26,3.02-1.26h0.22   V437.02z M453.79,435.71c-0.78,0.87-1.77,1.31-2.98,1.31h-0.31v-9.23h0.25c1.25,0,2.26,0.42,3.04,1.26   c0.78,0.84,1.17,1.96,1.17,3.37C454.96,433.74,454.57,434.84,453.79,435.71z"/>
	<path class="st1" d="M472.49,422.25c-3.2,0-5.78,0.96-7.76,2.89c-1.98,1.92-2.97,4.41-2.97,7.45c0,3.07,1,5.55,2.99,7.46   c2,1.9,4.58,2.86,7.73,2.86c3.21,0,5.81-0.96,7.79-2.87c1.98-1.91,2.97-4.39,2.97-7.44c0-3.06-1-5.55-3-7.47   C478.25,423.21,475.67,422.25,472.49,422.25z M476.57,436.76c-1.03,1.05-2.39,1.57-4.08,1.57c-1.69,0-3.05-0.53-4.07-1.59   c-1.02-1.06-1.53-2.44-1.53-4.15c0-1.73,0.51-3.12,1.55-4.18c1.03-1.06,2.38-1.59,4.05-1.59c1.71,0,3.07,0.53,4.1,1.59   c1.02,1.06,1.53,2.45,1.53,4.18C478.12,434.32,477.6,435.71,476.57,436.76z"/>
	<path class="st1" d="M493.95,422.67h-7.94v19.81h4.88v-4.88h2.82c5.8,0,8.69-2.53,8.69-7.58c0-2.4-0.72-4.22-2.16-5.48   C498.79,423.3,496.7,422.67,493.95,422.67z M493.56,433.45h-2.68v-6.55h2.82c1.28,0,2.21,0.27,2.77,0.81   c0.57,0.54,0.85,1.37,0.85,2.48C497.32,432.37,496.07,433.45,493.56,433.45z"/>
	<polygon class="st1" points="514.99,432.84 506.99,422.64 504.45,422.64 504.45,442.48 509.22,442.48 509.22,433.04 514.12,439.2    515.82,439.2 520.73,432.98 520.73,442.48 525.49,442.48 525.49,422.64 522.96,422.64  "/>
	<path class="st1" d="M536.33,422.64l-9.11,19.84h5.35l1.45-3.23h7.91l1.45,3.23h5.35l-9.11-19.84H536.33z M535.52,435.32l1.11-2.67   l1.34-3.87l1.37,3.87l1.11,2.67H535.52z"/>
	<polygon class="st1" points="567.65,422.67 562.77,422.67 562.77,437.99 555.36,437.99 555.36,422.67 550.49,422.67 550.49,442.48    566.45,442.48 566.45,447.13 570.85,447.13 570.85,437.99 567.65,437.99  "/>
	<rect x="573.02" y="422.67" class="st1" width="4.99" height="19.81"/>
	<path class="st1" d="M589.68,416.29c-0.52-0.52-1.14-0.78-1.87-0.78c-0.74,0-1.38,0.26-1.91,0.78c-0.53,0.52-0.79,1.15-0.79,1.89   s0.26,1.38,0.78,1.91c0.52,0.53,1.16,0.79,1.92,0.79c0.72,0,1.35-0.26,1.87-0.79c0.52-0.53,0.78-1.17,0.78-1.91   S590.21,416.81,589.68,416.29z"/>
	<rect x="581.88" y="422.67" class="st1" width="4.99" height="19.81"/>
	<path class="st1" d="M583.7,418.18c0-0.74-0.26-1.37-0.78-1.89c-0.52-0.52-1.15-0.78-1.89-0.78c-0.74,0-1.38,0.26-1.91,0.78   c-0.53,0.52-0.79,1.15-0.79,1.89s0.26,1.38,0.79,1.91c0.53,0.53,1.16,0.79,1.91,0.79c0.74,0,1.38-0.26,1.89-0.79   C583.44,419.56,583.7,418.93,583.7,418.18z"/>
</g>
<g>
	<path class="st1" d="M349.26,396.76c1.02,0,1.95,0.22,2.77,0.65c0.83,0.44,1.49,1.02,1.99,1.74l3.82-3.18   c-0.98-1.19-2.23-2.12-3.73-2.8c-1.5-0.68-3.18-1.02-5.02-1.02c-3.21,0-5.77,0.92-7.68,2.75c-1.9,1.83-2.86,4.33-2.86,7.51   c0,3.19,0.95,5.72,2.86,7.58c1.9,1.86,4.46,2.79,7.68,2.79c3.75,0,6.67-1.25,8.75-3.76l-3.82-3.2c-1.08,1.58-2.67,2.37-4.77,2.37   c-1.71,0-3.07-0.51-4.07-1.55c-1-1.03-1.5-2.44-1.5-4.22c0-1.76,0.5-3.15,1.5-4.15C346.2,397.26,347.55,396.76,349.26,396.76z"/>
	<polygon class="st1" points="359.88,412.37 364.76,412.37 364.76,397.04 372.37,397.04 372.37,412.37 377.24,412.37 377.24,392.55    359.88,392.55  "/>
	<path class="st1" d="M394.81,394.44c-1.44-1.25-3.53-1.88-6.28-1.88h-7.94v19.81h4.88v-4.88h2.81c5.8,0,8.69-2.53,8.69-7.58   C396.97,397.51,396.25,395.69,394.81,394.44z M388.14,403.34h-2.67v-6.55h2.81c1.28,0,2.21,0.27,2.77,0.81   c0.57,0.54,0.85,1.36,0.85,2.48C391.9,402.25,390.64,403.34,388.14,403.34z"/>
	<path class="st1" d="M404.66,392.53l-9.11,19.84h5.35l1.45-3.23h7.91l1.45,3.23h5.35l-9.11-19.84H404.66z M403.85,405.21l1.11-2.68   l1.34-3.87l1.36,3.87l1.12,2.68H403.85z"/>
	<path class="st1" d="M432.11,401.61c1.73-0.7,2.59-2.15,2.59-4.32c0-1.52-0.57-2.69-1.7-3.51c-1.13-0.82-2.77-1.23-4.91-1.23h-9.28   v19.81h9.64c5.16,0,7.75-1.97,7.75-5.91c0-1.26-0.38-2.32-1.14-3.18C434.3,402.43,433.32,401.87,432.11,401.61z M423.69,396.62   h4.07c0.72,0,1.29,0.17,1.69,0.51c0.4,0.34,0.6,0.83,0.6,1.46c0,1.34-0.8,2.01-2.4,2.01h-3.96V396.62z M430.47,407.73   c-0.46,0.34-1.12,0.52-1.98,0.52h-4.79v-3.96h4.63c0.91,0,1.61,0.18,2.11,0.53c0.49,0.35,0.74,0.84,0.74,1.45   C431.16,406.9,430.93,407.38,430.47,407.73z"/>
	<polygon class="st1" points="443.12,404.65 451.73,404.65 451.73,400.61 443.12,400.61 443.12,396.87 453.34,396.87 453.34,392.55    438.38,392.55 438.38,412.37 453.71,412.37 453.71,408.05 443.12,408.05  "/>
	<path class="st1" d="M482.35,403.06c0,1.78-0.21,3.08-0.63,3.89c-0.42,0.81-1.1,1.21-2.05,1.21h-1.14v4.21   c0.67,0.07,1.42,0.11,2.26,0.11c2.04,0,3.63-0.65,4.75-1.95c1.12-1.3,1.69-3.55,1.69-6.74v-6.74h6.02v15.33h4.85v-19.81h-15.75   V403.06z"/>
	<polygon class="st1" points="506.32,403.62 506.32,392.55 501.44,392.55 501.44,412.42 504.06,412.42 514.84,401.33 514.84,412.37    519.72,412.37 519.72,392.53 517.13,392.53  "/>
	<path class="st1" d="M536.33,401.61c1.73-0.7,2.59-2.15,2.59-4.32c0-1.52-0.57-2.69-1.7-3.51c-1.13-0.82-2.77-1.23-4.91-1.23h-9.28   v19.81h9.64c5.16,0,7.75-1.97,7.75-5.91c0-1.26-0.38-2.32-1.14-3.18S537.54,401.87,536.33,401.61z M527.91,396.62h4.07   c0.72,0,1.29,0.17,1.69,0.51c0.4,0.34,0.6,0.83,0.6,1.46c0,1.34-0.8,2.01-2.39,2.01h-3.96V396.62z M534.69,407.73   c-0.46,0.34-1.12,0.52-1.98,0.52h-4.79v-3.96h4.63c0.91,0,1.61,0.18,2.11,0.53c0.49,0.35,0.74,0.84,0.74,1.45   C535.38,406.9,535.15,407.38,534.69,407.73z"/>
	<path class="st1" d="M474.3,392.55h-15.61v9.36c0,3.14-0.51,5.13-1.53,5.96h-2.12v6.96h4.43v-2.47h13.66v2.47h4.4v-6.96h-3.23   V392.55z M469.42,407.88h-7.19c0.89-1.13,1.34-3.03,1.34-5.68v-5.16h5.85V407.88z"/>
	<path class="st1" d="M553.55,392.14c-3.2,0-5.78,0.96-7.76,2.89c-1.98,1.92-2.97,4.41-2.97,7.45c0,3.07,1,5.55,2.99,7.46   c2,1.9,4.58,2.86,7.73,2.86c3.21,0,5.81-0.96,7.79-2.87c1.98-1.91,2.97-4.39,2.97-7.44c0-3.06-1-5.55-3-7.47   C559.31,393.09,556.72,392.14,553.55,392.14z M557.63,406.64c-1.03,1.05-2.39,1.57-4.08,1.57c-1.69,0-3.05-0.53-4.07-1.59   c-1.02-1.06-1.53-2.44-1.53-4.15c0-1.73,0.51-3.12,1.55-4.18c1.03-1.06,2.38-1.59,4.05-1.59c1.71,0,3.07,0.53,4.1,1.59   c1.02,1.06,1.53,2.45,1.53,4.18C559.18,404.2,558.66,405.59,557.63,406.64z"/>
	<path class="st1" d="M574.55,386.17c-0.52-0.52-1.14-0.78-1.87-0.78c-0.74,0-1.38,0.26-1.91,0.78c-0.53,0.52-0.79,1.15-0.79,1.89   s0.26,1.38,0.78,1.91c0.52,0.53,1.16,0.79,1.92,0.79c0.72,0,1.35-0.26,1.87-0.79c0.52-0.53,0.78-1.17,0.78-1.91   S575.07,386.69,574.55,386.17z"/>
	<rect x="566.75" y="392.55" class="st1" width="4.99" height="19.81"/>
	<path class="st1" d="M568.56,388.07c0-0.74-0.26-1.37-0.78-1.89c-0.52-0.52-1.15-0.78-1.89-0.78c-0.74,0-1.38,0.26-1.91,0.78   c-0.53,0.52-0.79,1.15-0.79,1.89s0.26,1.38,0.79,1.91c0.53,0.53,1.16,0.79,1.91,0.79c0.74,0,1.38-0.26,1.89-0.79   C568.3,389.45,568.56,388.81,568.56,388.07z"/>
</g>
<linearGradient id="SVGID_1_" gradientUnits="userSpaceOnUse" x1="265.2065" y1="436.4063" x2="330.5774" y2="371.0355">
	<stop offset="0" style="stop-color:#4C81C9"/>
	<stop offset="1" style="stop-color:#25CF6F"/>
</linearGradient>
<path class="st2" d="M321.48,442.93v-28.29h-12.41v15.89h-29.12c-4.69,0-6.54-3.58-6.99-4.67c-0.45-1.1-1.68-4.93,1.64-8.25  l34.47-34.47v23.43h12.41v-44.61h-44.61v12.41h23.43l-34.47,34.47c-3.87,3.87-5.9,8.86-5.9,14c0,2.79,0.6,5.63,1.83,8.36  c3.26,7.27,10.72,11.74,18.68,11.74l14.43,0h14.21H321.48z"/>
<g>
	<path class="st1" d="M339.62,484.76v-10.35h1.79v8.73h4.07v-8.73h1.79v8.73h4.08v-8.73h1.77v10.35H339.62z"/>
	<path class="st1" d="M355.22,484.76v-10.35h7.37v1.58h-5.61v2.88h4.73v1.52h-4.73v2.78h5.87v1.58H355.22z"/>
	<path class="st1" d="M364.45,484.76v-10.35h8.73v10.35h-1.79v-8.74h-5.15v8.74H364.45z"/>
	<path class="st1" d="M378.01,484.76v-8.71h-3.38v-1.64h8.59v1.64h-3.38v8.71H378.01z"/>
	<path class="st1" d="M392.9,474.32h0.92v10.44h-1.79v-7.09l-6.43,7.16h-0.94v-10.42h1.79v7.09L392.9,474.32z"/>
	<path class="st1" d="M406.17,483.14v4.06h-1.64v-2.43h-8.61v-10.35h1.79v8.73h4.98v-8.73h1.79v8.73H406.17z"/>
	<path class="st1" d="M407.33,484.76v-10.35h1.79v3.19h2.47c1.34,0,2.35,0.3,3.03,0.89c0.68,0.6,1.02,1.47,1.02,2.64   c0,2.42-1.45,3.63-4.35,3.63H407.33z M409.12,483.2h2.11c1.72,0,2.58-0.68,2.58-2.04c0-1.34-0.79-2.01-2.36-2.01h-2.33V483.2z"/>
	<path class="st1" d="M426.01,484.76h-2.43l-4.83-4.9v4.9h-1.79v-10.35h1.79v4.92l4.42-4.92h2.31l-4.67,5.08L426.01,484.76z"/>
	<path class="st1" d="M435.38,474.32h0.92v10.44h-1.79v-7.09l-6.43,7.16h-0.94v-10.42h1.79v7.09L435.38,474.32z"/>
	<path class="st1" d="M446.64,474.32h0.92v10.44h-1.79v-7.09l-6.43,7.16h-0.94v-10.42h1.79v7.09L446.64,474.32z M443,473.56   c-0.75,0-1.35-0.19-1.8-0.57c-0.45-0.38-0.69-0.93-0.72-1.65h1.16c0.16,0.67,0.61,1.01,1.36,1.01c0.76,0,1.21-0.34,1.35-1.01h1.17   c-0.04,0.73-0.28,1.29-0.72,1.66C444.36,473.37,443.76,473.56,443,473.56z"/>
</g>
</svg>